<svg width="2491" height="2429" viewBox="0 0 2491 2429" fill="none" xmlns="http://www.w3.org/2000/svg">
<path fill-rule="evenodd" clip-rule="evenodd" d="M1245.17 0C557.568 0 0 557.471 0 1245.17C0 1795.32 356.777 2262.06 851.523 2426.71C913.75 2438.23 936.602 2399.7 936.602 2366.81C936.602 2353.38 936.364 2325.98 936.055 2290.36L936.055 2290.29L936.053 2290.15L936.053 2290.14L936.053 2290.13C935.679 2247 935.201 2191.88 934.912 2134.98C588.496 2210.3 515.4 1988.07 515.4 1988.07C458.76 1844.14 377.148 1805.88 377.148 1805.88C264.18 1728.59 385.664 1730.18 385.664 1730.18C510.703 1738.96 576.543 1858.5 576.543 1858.5C687.598 2048.86 867.832 1993.82 938.887 1962.01C950.059 1881.52 982.334 1826.6 1017.94 1795.51C741.377 1764.01 450.635 1657.25 450.635 1180.14C450.635 1044.2 499.277 933.115 578.936 845.918C566.006 814.551 523.389 687.91 590.996 516.396C590.996 516.396 695.557 482.93 933.506 644.033C1032.82 616.436 1139.35 602.607 1245.17 602.139C1350.99 602.607 1457.59 616.436 1557.1 644.033C1794.77 482.93 1899.18 516.396 1899.18 516.396C1966.95 687.91 1924.32 814.551 1911.39 845.918C1991.22 933.115 2039.53 1044.19 2039.53 1180.14C2039.53 1658.38 1748.24 1763.69 1470.98 1794.51C1515.63 1833.15 1555.43 1908.94 1555.43 2025.1C1555.43 2136.45 1554.78 2233.28 1554.36 2297.5C1554.14 2329.37 1553.98 2353.2 1553.98 2366.81C1553.98 2399.94 1576.4 2438.77 1639.52 2426.54C2133.99 2261.71 2490.32 1795.14 2490.32 1245.17C2490.32 557.471 1932.83 0 1245.17 0ZM903.614 406.919V437.465H1005.11V406.919L980.223 401.908V242.065H1020.3L1022.24 268.894H1061.68V202.145H847.693V268.894H886.644L888.745 242.065H928.504V401.908L903.614 406.919ZM1148.6 406.919V437.465H1265.77C1294 437.465 1315.66 431.647 1330.75 420.01C1345.83 408.266 1353.37 391.026 1353.37 368.291C1353.37 359.887 1351.86 352.129 1348.85 345.018C1345.94 337.799 1341.41 331.657 1335.27 326.593C1329.24 321.529 1321.48 317.973 1312 315.926C1322.99 311.508 1331.23 304.99 1336.73 296.37C1342.33 287.642 1345.13 277.783 1345.13 266.793C1345.13 245.351 1337.1 229.243 1321.05 218.469C1305.1 207.586 1282.8 202.145 1254.14 202.145H1173.49H1148.6V232.853L1173.49 237.863V401.908L1148.6 406.919ZM1265.77 398.03H1225.21V335.159H1268.85C1276.6 335.159 1282.91 336.398 1287.76 338.876C1292.6 341.354 1296.16 345.072 1298.42 350.028C1300.79 354.877 1301.98 360.964 1301.98 368.291C1301.98 378.096 1298.91 385.531 1292.77 390.595C1286.62 395.551 1277.63 398.03 1265.77 398.03ZM1253.81 300.249H1225.21V241.742H1254.14C1267.28 241.742 1277.09 244.166 1283.55 249.015C1290.13 253.864 1293.41 261.514 1293.41 271.965C1293.41 281.339 1290.07 288.397 1283.39 293.137C1276.71 297.878 1266.85 300.249 1253.81 300.249ZM1491.2 426.475C1507.9 436.064 1528.22 440.859 1552.14 440.859C1571.1 440.859 1588.23 438.704 1603.53 434.394C1618.94 430.084 1632.35 424.051 1643.77 416.293V319.967H1561.83V355.846L1592.06 358.756V394.151C1587.85 396.198 1582.3 397.976 1575.41 399.484C1568.62 400.993 1561.46 401.747 1553.91 401.747C1540.34 401.747 1528.92 398.676 1519.65 392.534C1510.38 386.393 1503.33 377.773 1498.48 366.675C1493.63 355.469 1491.2 342.324 1491.2 327.24V317.542C1491.2 301.811 1493.57 288.019 1498.32 276.167C1503.16 264.207 1510.11 254.887 1519.16 248.207C1528.32 241.419 1539.42 238.025 1552.46 238.025C1561.29 238.025 1569.16 239.21 1576.05 241.58C1582.95 243.951 1588.39 246.968 1592.38 250.631L1599.97 281.339H1637.47V227.843C1625.83 217.93 1612.26 210.603 1596.74 205.862C1581.33 201.121 1565.39 198.751 1548.9 198.751C1526.28 198.751 1506.77 203.815 1490.4 213.943C1474.13 224.071 1461.63 238.079 1452.9 255.965C1444.28 273.743 1439.97 294.377 1439.97 317.865V327.24C1439.97 349.651 1444.33 369.423 1453.06 386.554C1461.9 403.579 1474.61 416.885 1491.2 426.475ZM1620 1074C1620 1152.42 1567.17 1216 1502 1216C1436.83 1216 1384 1152.42 1384 1074C1384 995.576 1436.83 932 1502 932C1567.17 932 1620 995.576 1620 1074ZM940 1216C1005.17 1216 1058 1152.42 1058 1074C1058 995.576 1005.17 932 940 932C874.83 932 822 995.576 822 1074C822 1152.42 874.83 1216 940 1216Z" fill="white"/>
</svg>
