<svg width="1000" height="1000" viewBox="0 0 1000 1000" fill="none" xmlns="http://www.w3.org/2000/svg">
<path fill-rule="evenodd" clip-rule="evenodd" d="M500 1000C776.142 1000 1000 776.142 1000 500C1000 223.858 776.142 0 500 0C223.858 0 0 223.858 0 500C0 776.142 223.858 1000 500 1000ZM500 950C748.528 950 950 748.528 950 500C950 251.472 748.528 50 500 50C251.472 50 50 251.472 50 500C50 748.528 251.472 950 500 950ZM224.826 588V563.729L244.602 559.748V432.743H213.011L211.342 454.06H180.393V401.023H350.419V454.06H319.085L317.544 432.743H285.696V559.748L305.472 563.729V588H224.826ZM419.482 588V563.729L439.258 559.748V429.404L419.482 425.423V401.023H439.258H503.339C526.112 401.023 543.833 405.347 556.504 413.994C569.26 422.555 575.638 435.354 575.638 452.391C575.638 461.123 573.412 468.957 568.96 475.891C564.594 482.74 558.045 487.92 549.312 491.43C556.846 493.056 563.01 495.882 567.805 499.905C572.685 503.929 576.28 508.809 578.592 514.545C580.989 520.195 582.188 526.359 582.188 533.037C582.188 551.101 576.195 564.799 564.209 574.131C552.223 583.377 535.015 588 512.585 588H419.482ZM480.352 556.666H512.585C522.002 556.666 529.151 554.697 534.031 550.759C538.911 546.735 541.351 540.828 541.351 533.037C541.351 527.216 540.409 522.378 538.525 518.526C536.728 514.588 533.902 511.634 530.05 509.665C526.197 507.696 521.189 506.711 515.025 506.711H480.352V556.666ZM480.352 478.973H503.082C513.441 478.973 521.275 477.09 526.583 473.323C531.89 469.556 534.544 463.948 534.544 456.5C534.544 448.196 531.933 442.117 526.711 438.265C521.574 434.412 513.783 432.486 503.339 432.486H480.352V478.973ZM740.116 590.697C721.11 590.697 704.972 586.887 691.702 579.268C678.518 571.648 668.416 561.075 661.396 547.548C654.461 533.936 650.994 518.226 650.994 500.419V492.971C650.994 474.307 654.418 457.913 661.267 443.787C668.202 429.575 678.133 418.446 691.06 410.398C704.073 402.35 719.569 398.327 737.548 398.327C750.646 398.327 763.317 400.21 775.559 403.977C787.887 407.744 798.675 413.566 807.921 421.442V463.948H778.128L772.092 439.549C768.924 436.638 764.601 434.241 759.122 432.357C753.643 430.474 747.393 429.532 740.373 429.532C730.014 429.532 721.196 432.229 713.919 437.623C706.727 442.93 701.205 450.336 697.353 459.839C693.586 469.256 691.702 480.215 691.702 492.714V500.419C691.702 512.405 693.629 522.849 697.481 531.753C701.334 540.571 706.941 547.42 714.304 552.3C721.667 557.18 730.741 559.62 741.529 559.62C747.521 559.62 753.215 559.02 758.608 557.822C764.087 556.623 768.496 555.211 771.835 553.584V525.46L747.821 523.149V494.64H812.929V571.177C803.854 577.341 793.195 582.135 780.953 585.56C768.796 588.985 755.184 590.697 740.116 590.697ZM825 639H176V653H825V639Z" fill="#FFFAFA"/>
</svg>
