<svg width="1000" height="1000" viewBox="0 0 1000 1000" fill="none" xmlns="http://www.w3.org/2000/svg">
<path fill-rule="evenodd" clip-rule="evenodd" d="M1000 500C1000 776.142 776.142 1000 500 1000C223.858 1000 0 776.142 0 500C0 223.858 223.858 0 500 0C776.142 0 1000 223.858 1000 500ZM950 500C950 748.528 748.528 950 500 950C251.472 950 50 748.528 50 500C50 251.472 251.472 50 500 50C748.528 50 950 251.472 950 500ZM224.826 497.729V522H305.472V497.729L285.696 493.748V366.743H317.544L319.085 388.06H350.419V335.023H180.393V388.06H211.342L213.012 366.743H244.602V493.748L224.826 497.729ZM419.482 497.729V522H512.585C535.015 522 552.223 517.377 564.209 508.131C576.195 498.799 582.188 485.101 582.188 467.037C582.188 460.359 580.989 454.195 578.592 448.545C576.28 442.809 572.685 437.929 567.805 433.905C563.01 429.882 556.846 427.056 549.312 425.43C558.045 421.92 564.594 416.74 568.96 409.891C573.412 402.957 575.638 395.123 575.638 386.391C575.638 369.354 569.26 356.555 556.504 347.994C543.833 339.347 526.112 335.023 503.339 335.023H439.258H419.482V359.423L439.258 363.404V493.748L419.482 497.729ZM512.585 490.666H480.352V440.711H515.025C521.189 440.711 526.197 441.696 530.05 443.665C533.902 445.634 536.728 448.588 538.525 452.526C540.409 456.378 541.351 461.215 541.351 467.037C541.351 474.828 538.911 480.735 534.031 484.759C529.151 488.697 522.002 490.666 512.585 490.666ZM503.082 412.973H480.352V366.486H503.339C513.784 366.486 521.574 368.412 526.711 372.265C531.933 376.117 534.544 382.196 534.544 390.5C534.544 397.948 531.89 403.556 526.583 407.323C521.275 411.09 513.441 412.973 503.082 412.973ZM691.702 513.268C704.972 520.887 721.11 524.697 740.116 524.697C755.184 524.697 768.796 522.985 780.953 519.56C793.195 516.136 803.854 511.341 812.929 505.177V428.64H747.821V457.149L771.835 459.46V487.584C768.496 489.211 764.087 490.623 758.608 491.822C753.215 493.02 747.521 493.62 741.529 493.62C730.741 493.62 721.667 491.18 714.304 486.3C706.941 481.42 701.334 474.571 697.481 465.753C693.629 456.849 691.702 446.405 691.702 434.419V426.714C691.702 414.215 693.586 403.256 697.353 393.839C701.205 384.336 706.727 376.931 713.919 371.623C721.196 366.229 730.014 363.532 740.373 363.532C747.393 363.532 753.643 364.474 759.122 366.357C764.601 368.241 768.924 370.638 772.092 373.549L778.128 397.948H807.921V355.442C798.675 347.566 787.887 341.744 775.559 337.977C763.317 334.21 750.646 332.327 737.548 332.327C719.569 332.327 704.073 336.35 691.06 344.398C678.133 352.445 668.202 363.575 661.267 377.787C654.418 391.913 650.994 408.307 650.994 426.971V434.419C650.994 452.226 654.461 467.936 661.396 481.548C668.416 495.075 678.518 505.648 691.702 513.268ZM182 553H831V566H182V553ZM222.489 629.386V634H249.564V622.916H243.607L243.339 628.019H234.062V603.849L238.432 603.092V598.453H234.062H226.249H222.489V603.092L226.249 603.849V628.629L222.489 629.386ZM280.987 629.386V634H309.43V623.941H303.546L303.277 627.994H292.56V618.644H304.254V612.613H292.56V604.459H302.765L303.033 608.365H308.966V598.453H280.987V603.092L284.747 603.849V628.629L280.987 629.386ZM342.073 629.386V634H357.381V629.386L353.23 628.629V621.915L352.718 606.754L352.889 606.729L363.436 633.756H369.466L379.817 606.461L379.964 606.485L379.817 622.843V628.629L375.911 629.386V634H391.194V629.386L387.435 628.629V603.849L391.194 603.092V598.453H375.789L366.878 622.574H366.731L357.576 598.453H345.809H342.073V603.092L345.809 603.849V628.629L342.073 629.386ZM422.495 629.386V634H450.938V623.941H445.054L444.785 627.994H434.067V618.644H445.762V612.613H434.067V604.459H444.272L444.541 608.365H450.474V598.453H422.495V603.092L426.255 603.849V628.629L422.495 629.386ZM495.251 623.899V628.629L498.742 629.386V634H483.679V629.386L487.438 628.629V603.849L483.679 603.092V598.453H498.742V603.092L495.251 603.849V615.242L506.945 603.434L506.994 603.385L503.234 603.092V598.453H518.786V603.092L515.441 603.775L505.355 613.829L516.516 628.775L520.08 629.386V634H503.991V629.386L507.434 629.093H507.458L500.138 619.028L495.251 623.899ZM558.925 633.17C560.943 634.065 563.165 634.513 565.59 634.513C567.999 634.513 570.212 634.065 572.23 633.17C574.249 632.275 575.998 631.013 577.479 629.386C578.977 627.758 580.133 625.854 580.946 623.673C581.76 621.476 582.167 619.083 582.167 616.495V615.934C582.167 613.362 581.76 610.986 580.946 608.805C580.133 606.624 578.977 604.719 577.479 603.092C575.982 601.464 574.224 600.203 572.206 599.308C570.188 598.396 567.974 597.94 565.565 597.94C563.14 597.94 560.919 598.396 558.9 599.308C556.898 600.203 555.165 601.464 553.7 603.092C552.252 604.719 551.129 606.624 550.331 608.805C549.55 610.986 549.159 613.362 549.159 615.934V616.495C549.159 619.083 549.55 621.476 550.331 623.673C551.129 625.854 552.26 627.758 553.725 629.386C555.189 631.013 556.923 632.275 558.925 633.17ZM570.399 627.018C569.097 628.027 567.494 628.531 565.59 628.531C563.653 628.531 562.042 628.035 560.756 627.042C559.486 626.033 558.534 624.625 557.899 622.818C557.281 621.012 556.972 618.904 556.972 616.495V615.885C556.972 613.492 557.281 611.409 557.899 609.635C558.518 607.844 559.462 606.453 560.731 605.46C562.001 604.451 563.612 603.946 565.565 603.946C567.47 603.946 569.073 604.451 570.375 605.46C571.693 606.469 572.686 607.869 573.354 609.659C574.037 611.45 574.379 613.525 574.379 615.885V616.495C574.379 618.904 574.045 621.012 573.378 622.818C572.711 624.609 571.718 626.008 570.399 627.018ZM612.198 629.386V634H624.894V629.386L622.501 628.946L623.795 624.552H635.782L637.125 628.946L634.732 629.386V634H647.379V629.386L644.864 629.02L633.927 598.453H625.699L614.737 629.02L612.198 629.386ZM634.024 618.937H625.553L629.312 607.511L629.703 606.266H629.85L630.216 607.413L634.024 618.937ZM678.606 629.386V634H693.914V629.386L689.275 628.629V610.611H689.422L704.632 634H712.273V603.849L716.009 603.092V598.453H712.273H700.701V603.092L705.315 603.849V622.184L705.169 622.208L690.276 598.453H682.317H678.606V603.092L682.317 603.849V628.629L678.606 629.386ZM743.696 629.386V634H756.392V629.386L753.999 628.946L755.293 624.552H767.28L768.623 628.946L766.23 629.386V634H778.877V629.386L776.362 629.02L765.425 598.453H757.197L746.235 629.02L743.696 629.386ZM765.522 618.937H757.051L760.811 607.511L761.201 606.266H761.348L761.714 607.413L765.522 618.937Z" fill="white"/>
</svg>
